Source:  http://thepiratebay.org/torrent/5139841/Undergrads_Complete_Series_DvDrip-McTav/

Encoded For PSP, iPod, and Zune

Enjoy and Please help seed. =)

Show info - The misadventures of a group of childhood friends who keep in touch even while they go to separate colleges.

Video Specs: 
Format                           : MPEG-4
Codec ID                         : M4V 
File size                        : 73.8 MiB
Duration                         : 21mn 35s
Overall bit rate                 : 478 Kbps
Movie name                       : Undergrads S01E01 Party
Encoded date                     : 2010
Writing application              : Lavf52.33.0

Video
ID                               : 1
Format                           : AVC
Format/Info                      : Advanced Video Codec
Format profile                   : Baseline@L1.3
Format settings, CABAC           : No
Format settings, ReFrames        : 1 frame
Codec ID                         : avc1
Codec ID/Info                    : Advanced Video Coding
Duration                         : 21mn 35s
Bit rate mode                    : Variable
Bit rate                         : 345 Kbps
Width                            : 320 pixels
Height                           : 240 pixels
Display aspect ratio             : 4:3
Frame rate mode                  : Constant
Frame rate                       : 29.970 fps
Color space                      : YUV
Chroma subsampling               : 4:2:0
Bit depth                        : 8 bits
Scan type                        : Progressive
Bits/(Pixel*Frame)               : 0.150
Stream size                      : 53.3 MiB (72%)

Audio
ID                               : 2
Format                           : AAC
Format/Info                      : Advanced Audio Codec
Format version                   : Version 4
Format profile                   : LC
Format settings, SBR             : No
Codec ID                         : 40
Duration                         : 21mn 35s
Bit rate mode                    : Variable
Bit rate                         : 128 Kbps
Channel(s)                       : 2 channels
Channel positions                : Front: L R
Sampling rate                    : 48.0 KHz
Stream size                      : 19.8 MiB (27%)

